HIERARCHY
ROOT Hips
{
	OFFSET 0.000000 0.000000 0.000000 
	CHANNELS 6 Xposition Yposition Zposition Zrotation Xrotation Yrotation
	JOINT Spine
	{
		OFFSET -0.000000 8.280624 0.000000 
		CHANNELS 3 Zrotation Xrotation Yrotation
		JOINT Spine1
		{
			OFFSET -0.000000 24.860672 0.000000 
			CHANNELS 3 Zrotation Xrotation Yrotation
			JOINT Neck
			{
				OFFSET -0.000000 24.758574 2.250779 
				CHANNELS 3 Zrotation Xrotation Yrotation
				JOINT Head
				{
					OFFSET -0.000000 14.137651 -2.019665 
					CHANNELS 3 Zrotation Xrotation Yrotation
					End Site
					{
						OFFSET -0.000000 25.245806 0.000000 
					}
				}
			}
			JOINT LeftShoulder
			{
				OFFSET 4.021533 22.370487 -0.301823 
				CHANNELS 3 Zrotation Xrotation Yrotation
				JOINT LeftArm
				{
					OFFSET 12.928750 0.000000 0.000000 
					CHANNELS 3 Zrotation Xrotation Yrotation
					JOINT LeftForeArm
					{
						OFFSET 29.110218 0.000000 0.000000 
						CHANNELS 3 Zrotation Xrotation Yrotation
						JOINT LeftHand
						{
							OFFSET 26.112843 0.000000 0.000000 
							CHANNELS 3 Zrotation Xrotation Yrotation
							End Site
							{
								OFFSET 15.147485 0.000000 0.000000 
							}
						}
					}
				}
			}
			JOINT RightShoulder
			{
				OFFSET -4.040554 22.370487 -0.301823 
				CHANNELS 3 Zrotation Xrotation Yrotation
				JOINT RightArm
				{
					OFFSET -12.928750 0.000000 0.000000 
					CHANNELS 3 Zrotation Xrotation Yrotation
					JOINT RightForeArm
					{
						OFFSET -29.110218 0.000000 0.000000 
						CHANNELS 3 Zrotation Xrotation Yrotation
						JOINT RightHand
						{
							OFFSET -26.112843 0.000000 0.000000 
							CHANNELS 3 Zrotation Xrotation Yrotation
							End Site
							{
								OFFSET -15.147485 0.000000 0.000000 
							}
						}
					}
				}
			}
		}
	}
	JOINT LeftUpLeg
	{
		OFFSET 10.098323 0.000000 0.000000 
		CHANNELS 3 Zrotation Xrotation Yrotation
		JOINT LeftLeg
		{
			OFFSET -0.000000 -44.180832 0.000000 
			CHANNELS 3 Zrotation Xrotation Yrotation
			JOINT LeftFoot
			{
				OFFSET -0.000000 -40.401024 0.000000 
				CHANNELS 3 Zrotation Xrotation Yrotation
				JOINT LeftToeBase
				{
					OFFSET -0.000000 -6.563910 15.147485 
					CHANNELS 3 Zrotation Xrotation Yrotation
					End Site
					{
						OFFSET -0.000000 0.000000 4.039329 
					}
				}
			}
		}
	}
	JOINT RightUpLeg
	{
		OFFSET -10.098323 0.000000 0.000000 
		CHANNELS 3 Zrotation Xrotation Yrotation
		JOINT RightLeg
		{
			OFFSET -0.000000 -44.180832 0.000000 
			CHANNELS 3 Zrotation Xrotation Yrotation
			JOINT RightFoot
			{
				OFFSET -0.000000 -40.401024 0.000000 
				CHANNELS 3 Zrotation Xrotation Yrotation
				JOINT RightToeBase
				{
					OFFSET -0.000000 -6.563910 15.147485 
					CHANNELS 3 Zrotation Xrotation Yrotation
					End Site
					{
						OFFSET -0.000000 0.000000 4.039329 
					}
				}
			}
		}
	}
}
MOTION
Frames: 7
Frame Time: 0.008333
-42.043259 93.957245 14.786251 12.666042 5.416152 104.498650 -3.795449 13.682671 0.881658 0.670875 7.053054 0.384912 -2.538060 22.313646 3.081595 -1.668828 17.537949 3.082134 -0.606602 11.329757 -19.301329 -49.265736 37.750191 -30.085917 -9.909176 1.517185 -81.748810 29.323736 -8.383500 -5.027072 -2.641423 5.466812 9.344401 64.785614 26.959724 15.580440 18.412899 -14.200809 92.912804 19.962116 -26.953625 33.510139 -0.663651 11.918356 2.524756 -1.817476 8.516473 1.915329 -2.191095 -3.183437 7.156756 0.000000 0.000000 0.000000 -6.847581 -1.210357 0.088197 -1.831971 33.095242 11.385592 4.964216 -10.677061 -17.189756 0.000000 0.000000 0.000000 
-42.116524 93.945862 14.819121 12.686960 5.226363 103.922180 -3.773579 13.653398 0.964078 0.577460 7.074391 0.476584 -2.546020 22.303410 3.186196 -1.864106 17.676151 3.195601 -0.577186 11.325418 -19.258173 -49.201092 38.371761 -30.289995 -9.330936 1.168036 -81.565788 29.882864 -8.427255 -5.780789 -2.614727 5.503654 9.339733 64.833855 26.915396 15.406149 18.159273 -14.035480 93.353714 19.835480 -26.721840 33.511452 -0.624859 11.833197 2.714823 -1.759338 8.644787 1.732443 -2.234113 -3.337422 7.569752 0.000000 0.000000 0.000000 -6.701084 -1.106887 0.103522 -1.717634 32.996101 10.922828 4.861469 -10.796998 -17.268648 0.000000 0.000000 0.000000 
-42.175602 93.939362 14.892633 12.716555 5.075252 103.438568 -3.761338 13.448447 0.936510 0.479217 7.388807 0.462012 -2.730610 22.380978 3.371123 -1.991668 17.559212 3.374990 -0.494514 11.273111 -19.216909 -49.040325 38.798332 -30.419043 -8.742224 0.936889 -81.515335 30.669523 -8.369121 -6.462772 -2.662901 5.539223 9.518752 64.811882 26.541365 15.427872 18.410091 -13.330757 93.737801 19.050451 -26.650820 33.597984 -0.543752 11.745809 2.875015 -1.789838 8.811551 1.883654 -2.284358 -3.496037 7.686683 0.000000 0.000000 0.000000 -6.542134 -0.960143 -0.013226 -1.727299 32.874691 10.699886 4.791513 -10.956861 -17.430254 0.000000 0.000000 0.000000 
-42.248505 93.933151 14.940328 12.745396 4.919713 102.974182 -3.752216 13.427752 0.948644 0.412461 7.453763 0.479974 -2.782831 22.322763 3.498436 -2.166336 17.766491 3.512411 -0.466144 11.248206 -19.212397 -48.961140 39.219803 -30.509317 -8.121495 0.798688 -81.402077 31.470322 -8.231606 -7.269716 -2.650456 5.568030 9.517024 64.831627 26.594921 15.297849 17.832794 -13.366683 94.067688 19.049229 -26.213470 33.539043 -0.502284 11.630223 3.010011 -1.760891 9.022726 2.045447 -2.356614 -3.679561 7.792421 0.000000 0.000000 0.000000 -6.409570 -0.824814 -0.056963 -1.689273 32.735733 10.407465 4.678511 -11.037489 -17.573881 0.000000 0.000000 0.000000 
-42.322060 93.925415 14.993511 12.767941 4.764359 102.508659 -3.740782 13.387607 0.953062 0.357310 7.544216 0.490442 -2.871435 22.291533 3.623677 -2.316622 17.926540 3.644172 -0.432996 11.218662 -19.271008 -48.517193 40.078705 -30.688314 -7.035203 0.092989 -81.525497 31.972551 -8.147248 -7.627159 -2.649203 5.619464 9.486709 64.816971 26.731426 15.197849 17.482798 -13.340086 94.520844 18.633463 -26.077078 33.610142 -0.437896 11.518426 3.054749 -1.835288 9.219963 2.714003 -2.335027 -3.858895 7.571493 0.000000 0.000000 0.000000 -6.288994 -0.699086 -0.091924 -1.661343 32.589203 10.310404 4.662251 -11.142204 -17.810087 0.000000 0.000000 0.000000 
-42.387424 93.917557 15.048814 12.781355 4.610171 102.094551 -3.772669 13.451046 0.986008 0.412176 7.442880 0.514180 -2.928216 22.331276 3.723121 -2.536575 18.055019 3.749777 -0.455529 11.292109 -19.327251 -48.235806 40.401848 -31.044918 -6.808939 -0.000748 -81.326424 32.789055 -8.303711 -8.378679 -2.685798 5.742378 9.318647 64.771004 26.810101 15.143778 17.279631 -13.169213 94.928772 18.153721 -25.980633 33.543465 -0.370239 11.385851 3.247180 -1.815613 9.446142 2.762017 -2.372534 -4.058620 7.670888 0.000000 0.000000 0.000000 -6.165861 -0.575183 -0.078231 -1.624973 32.395039 10.179824 4.469359 -11.203860 -18.031092 0.000000 0.000000 0.000000 
-42.456722 93.905754 15.103415 12.775418 4.461863 101.684944 -3.708553 13.330605 0.910265 0.270029 7.638065 0.458788 -2.983798 22.176262 3.893441 -2.631631 18.387943 3.938228 -0.435073 11.208471 -19.264021 -48.066334 40.752281 -31.226927 -6.328906 -0.235720 -81.162735 32.977676 -8.281172 -8.908121 -2.601107 5.686905 9.381316 64.712540 26.708807 14.967475 17.166460 -12.916788 95.294983 17.909515 -25.825674 33.449760 -0.334821 11.231113 3.436175 -1.753756 9.671976 2.871155 -2.432637 -4.260422 7.719589 0.000000 0.000000 0.000000 -6.065044 -0.471245 -0.121459 -1.583471 32.176102 9.966321 4.241807 -11.266718 -18.039816 0.000000 0.000000 0.000000 
